<mxfile host="app.diagrams.net" modified="2022-03-04T17:46:03.823Z" agent="5.0 (Macintosh; Intel Mac OS X 10_15_7) AppleWebKit/537.36 (KHTML, like Gecko) Chrome/99.0.4844.51 Safari/537.36" etag="A26oZakruWeYupHXCebH" version="16.2.4" type="github">
  <diagram id="PhJlUCY7ZDCRtgDBc7U1" name="Page-1">
    <mxGraphModel dx="1475" dy="829" grid="1" gridSize="10" guides="1" tooltips="1" connect="1" arrows="1" fold="1" page="1" pageScale="1" pageWidth="850" pageHeight="1100" math="0" shadow="0">
      <root>
        <mxCell id="0" />
        <mxCell id="1" parent="0" />
        <mxCell id="SxomY5DpxiQTBFnu6cV1-1" value="Front end service&lt;br&gt;original url + username" style="rounded=0;whiteSpace=wrap;html=1;" vertex="1" parent="1">
          <mxGeometry x="210" y="90" width="120" height="60" as="geometry" />
        </mxCell>
        <mxCell id="SxomY5DpxiQTBFnu6cV1-2" value="Back end service: generate url" style="rounded=0;whiteSpace=wrap;html=1;" vertex="1" parent="1">
          <mxGeometry x="400" y="80" width="120" height="60" as="geometry" />
        </mxCell>
        <mxCell id="SxomY5DpxiQTBFnu6cV1-3" value="read" style="shape=cylinder3;whiteSpace=wrap;html=1;boundedLbl=1;backgroundOutline=1;size=15;" vertex="1" parent="1">
          <mxGeometry x="570" y="160" width="60" height="80" as="geometry" />
        </mxCell>
        <mxCell id="SxomY5DpxiQTBFnu6cV1-4" value="" style="endArrow=classic;startArrow=classic;html=1;rounded=0;entryX=0;entryY=0.5;entryDx=0;entryDy=0;entryPerimeter=0;exitX=1;exitY=0.5;exitDx=0;exitDy=0;" edge="1" parent="1" source="SxomY5DpxiQTBFnu6cV1-2" target="SxomY5DpxiQTBFnu6cV1-3">
          <mxGeometry width="50" height="50" relative="1" as="geometry">
            <mxPoint x="400" y="610" as="sourcePoint" />
            <mxPoint x="450" y="560" as="targetPoint" />
          </mxGeometry>
        </mxCell>
        <mxCell id="SxomY5DpxiQTBFnu6cV1-5" value="" style="endArrow=classic;startArrow=classic;html=1;rounded=0;entryX=0;entryY=0.75;entryDx=0;entryDy=0;" edge="1" parent="1" source="SxomY5DpxiQTBFnu6cV1-1" target="SxomY5DpxiQTBFnu6cV1-2">
          <mxGeometry width="50" height="50" relative="1" as="geometry">
            <mxPoint x="330" y="102" as="sourcePoint" />
            <mxPoint x="450" y="560" as="targetPoint" />
          </mxGeometry>
        </mxCell>
        <mxCell id="SxomY5DpxiQTBFnu6cV1-6" value="original url&lt;br&gt;generated url&lt;br&gt;username&lt;br&gt;count&lt;br&gt;tracking factor" style="text;html=1;strokeColor=none;fillColor=none;align=center;verticalAlign=middle;whiteSpace=wrap;rounded=0;" vertex="1" parent="1">
          <mxGeometry x="680" y="220" width="180" height="30" as="geometry" />
        </mxCell>
        <mxCell id="SxomY5DpxiQTBFnu6cV1-7" value="Actor" style="shape=umlActor;verticalLabelPosition=bottom;verticalAlign=top;html=1;outlineConnect=0;" vertex="1" parent="1">
          <mxGeometry x="90" y="180" width="30" height="60" as="geometry" />
        </mxCell>
        <mxCell id="SxomY5DpxiQTBFnu6cV1-8" value="" style="endArrow=classic;html=1;rounded=0;entryX=0;entryY=0.5;entryDx=0;entryDy=0;" edge="1" parent="1" source="SxomY5DpxiQTBFnu6cV1-7" target="SxomY5DpxiQTBFnu6cV1-1">
          <mxGeometry width="50" height="50" relative="1" as="geometry">
            <mxPoint x="400" y="70" as="sourcePoint" />
            <mxPoint x="450" y="20" as="targetPoint" />
          </mxGeometry>
        </mxCell>
        <mxCell id="SxomY5DpxiQTBFnu6cV1-9" value="Actor" style="shape=umlActor;verticalLabelPosition=bottom;verticalAlign=top;html=1;outlineConnect=0;" vertex="1" parent="1">
          <mxGeometry x="70" y="420" width="30" height="60" as="geometry" />
        </mxCell>
        <mxCell id="SxomY5DpxiQTBFnu6cV1-10" value="&lt;span style=&quot;color: rgb(0 , 0 , 0) ; font-family: &amp;#34;helvetica&amp;#34; ; font-size: 12px ; font-style: normal ; font-weight: 400 ; letter-spacing: normal ; text-align: center ; text-indent: 0px ; text-transform: none ; word-spacing: 0px ; background-color: rgb(248 , 249 , 250) ; display: inline ; float: none&quot;&gt;generated url&lt;br&gt;(original page + username + tracking factor)&lt;/span&gt;" style="rounded=0;whiteSpace=wrap;html=1;" vertex="1" parent="1">
          <mxGeometry x="210" y="240" width="140" height="90" as="geometry" />
        </mxCell>
        <mxCell id="SxomY5DpxiQTBFnu6cV1-11" value="" style="endArrow=classic;startArrow=classic;html=1;rounded=0;entryX=0;entryY=0;entryDx=0;entryDy=52.5;entryPerimeter=0;" edge="1" parent="1" source="SxomY5DpxiQTBFnu6cV1-23" target="SxomY5DpxiQTBFnu6cV1-3">
          <mxGeometry width="50" height="50" relative="1" as="geometry">
            <mxPoint x="340" y="250" as="sourcePoint" />
            <mxPoint x="390" y="200" as="targetPoint" />
          </mxGeometry>
        </mxCell>
        <mxCell id="SxomY5DpxiQTBFnu6cV1-13" value="" style="endArrow=classic;startArrow=classic;html=1;rounded=0;exitX=0.5;exitY=0.5;exitDx=0;exitDy=0;exitPerimeter=0;entryX=0;entryY=0.5;entryDx=0;entryDy=0;" edge="1" parent="1" source="SxomY5DpxiQTBFnu6cV1-9" target="SxomY5DpxiQTBFnu6cV1-30">
          <mxGeometry width="50" height="50" relative="1" as="geometry">
            <mxPoint x="400" y="40" as="sourcePoint" />
            <mxPoint x="450" y="-10" as="targetPoint" />
          </mxGeometry>
        </mxCell>
        <mxCell id="SxomY5DpxiQTBFnu6cV1-14" value="orignal page" style="rounded=0;whiteSpace=wrap;html=1;" vertex="1" parent="1">
          <mxGeometry x="230" y="505" width="140" height="90" as="geometry" />
        </mxCell>
        <mxCell id="SxomY5DpxiQTBFnu6cV1-15" value="" style="endArrow=classic;html=1;rounded=0;entryX=0;entryY=0.5;entryDx=0;entryDy=0;exitX=0.5;exitY=0.5;exitDx=0;exitDy=0;exitPerimeter=0;" edge="1" parent="1" source="SxomY5DpxiQTBFnu6cV1-9" target="SxomY5DpxiQTBFnu6cV1-14">
          <mxGeometry width="50" height="50" relative="1" as="geometry">
            <mxPoint x="130" y="207.1428571428571" as="sourcePoint" />
            <mxPoint x="220" y="130" as="targetPoint" />
          </mxGeometry>
        </mxCell>
        <mxCell id="SxomY5DpxiQTBFnu6cV1-17" value="google.com&lt;br&gt;&lt;br&gt;&lt;br&gt;twilio.com/orign=google.com&amp;amp;user_id=@alsdjf&lt;br&gt;bit.ly/shortstring&lt;br&gt;&lt;br&gt;tiwlio.com/campain=shorttring&lt;br&gt;&lt;br&gt;shortstring = hash of (origina page + username)&lt;br&gt;(original page + username + tracking factor)&lt;br&gt;(original page + username + time)&lt;br&gt;&lt;br&gt;1. DB store&lt;br&gt;2. colision" style="rounded=0;whiteSpace=wrap;html=1;" vertex="1" parent="1">
          <mxGeometry x="255" y="640" width="395" height="200" as="geometry" />
        </mxCell>
        <mxCell id="SxomY5DpxiQTBFnu6cV1-18" value="1. return original link as fast as possible&lt;br&gt;1. internal map&amp;nbsp;&lt;br&gt;2. count update" style="rounded=0;whiteSpace=wrap;html=1;" vertex="1" parent="1">
          <mxGeometry x="560" y="450" width="125" height="145" as="geometry" />
        </mxCell>
        <mxCell id="SxomY5DpxiQTBFnu6cV1-19" value="(generated url)" style="shape=process;whiteSpace=wrap;html=1;backgroundOutline=1;" vertex="1" parent="1">
          <mxGeometry x="500" y="330" width="120" height="60" as="geometry" />
        </mxCell>
        <mxCell id="SxomY5DpxiQTBFnu6cV1-20" value="" style="endArrow=classic;startArrow=classic;html=1;rounded=0;entryX=0;entryY=0.5;entryDx=0;entryDy=0;exitX=1;exitY=0.638;exitDx=0;exitDy=0;exitPerimeter=0;" edge="1" parent="1" source="SxomY5DpxiQTBFnu6cV1-10" target="SxomY5DpxiQTBFnu6cV1-19">
          <mxGeometry width="50" height="50" relative="1" as="geometry">
            <mxPoint x="340" y="480" as="sourcePoint" />
            <mxPoint x="390" y="430" as="targetPoint" />
          </mxGeometry>
        </mxCell>
        <mxCell id="SxomY5DpxiQTBFnu6cV1-21" value="" style="endArrow=classic;startArrow=classic;html=1;rounded=0;exitX=1;exitY=0.5;exitDx=0;exitDy=0;" edge="1" parent="1" source="SxomY5DpxiQTBFnu6cV1-19" target="SxomY5DpxiQTBFnu6cV1-28">
          <mxGeometry width="50" height="50" relative="1" as="geometry">
            <mxPoint x="360.0000000000002" y="287.41999999999985" as="sourcePoint" />
            <mxPoint x="450.0000000000002" y="280" as="targetPoint" />
          </mxGeometry>
        </mxCell>
        <mxCell id="SxomY5DpxiQTBFnu6cV1-22" value="Worker&lt;br&gt;Update count" style="rounded=0;whiteSpace=wrap;html=1;" vertex="1" parent="1">
          <mxGeometry x="640" y="290" width="120" height="60" as="geometry" />
        </mxCell>
        <mxCell id="SxomY5DpxiQTBFnu6cV1-23" value="cache&lt;br&gt;map(generated url - orignal)" style="rounded=0;whiteSpace=wrap;html=1;" vertex="1" parent="1">
          <mxGeometry x="410" y="220" width="100" height="70" as="geometry" />
        </mxCell>
        <mxCell id="SxomY5DpxiQTBFnu6cV1-24" value="&lt;span style=&quot;color: rgb(0 , 0 , 0) ; font-family: &amp;#34;helvetica&amp;#34; ; font-size: 12px ; font-style: normal ; font-weight: 400 ; letter-spacing: normal ; text-align: center ; text-indent: 0px ; text-transform: none ; word-spacing: 0px ; background-color: rgb(248 , 249 , 250) ; display: inline ; float: none&quot;&gt;generated url&lt;br&gt;(original page + username + tracking factor)&lt;/span&gt;" style="rounded=0;whiteSpace=wrap;html=1;" vertex="1" parent="1">
          <mxGeometry x="210" y="340" width="140" height="90" as="geometry" />
        </mxCell>
        <mxCell id="SxomY5DpxiQTBFnu6cV1-25" value="" style="endArrow=classic;startArrow=classic;html=1;rounded=0;entryX=0;entryY=0.5;entryDx=0;entryDy=0;" edge="1" parent="1" source="SxomY5DpxiQTBFnu6cV1-10" target="SxomY5DpxiQTBFnu6cV1-23">
          <mxGeometry width="50" height="50" relative="1" as="geometry">
            <mxPoint x="340" y="480" as="sourcePoint" />
            <mxPoint x="390" y="430" as="targetPoint" />
          </mxGeometry>
        </mxCell>
        <mxCell id="SxomY5DpxiQTBFnu6cV1-26" value="" style="endArrow=classic;startArrow=classic;html=1;rounded=0;entryX=0;entryY=0.5;entryDx=0;entryDy=0;exitX=1;exitY=0.5;exitDx=0;exitDy=0;" edge="1" parent="1" source="SxomY5DpxiQTBFnu6cV1-24" target="SxomY5DpxiQTBFnu6cV1-23">
          <mxGeometry width="50" height="50" relative="1" as="geometry">
            <mxPoint x="360.0000000000002" y="278.8461538461538" as="sourcePoint" />
            <mxPoint x="420.0000000000002" y="265" as="targetPoint" />
          </mxGeometry>
        </mxCell>
        <mxCell id="SxomY5DpxiQTBFnu6cV1-27" value="" style="endArrow=classic;startArrow=classic;html=1;rounded=0;" edge="1" parent="1">
          <mxGeometry width="50" height="50" relative="1" as="geometry">
            <mxPoint x="360" y="380" as="sourcePoint" />
            <mxPoint x="520" y="360" as="targetPoint" />
          </mxGeometry>
        </mxCell>
        <mxCell id="SxomY5DpxiQTBFnu6cV1-28" value="write" style="shape=cylinder3;whiteSpace=wrap;html=1;boundedLbl=1;backgroundOutline=1;size=15;" vertex="1" parent="1">
          <mxGeometry x="720" y="110" width="60" height="80" as="geometry" />
        </mxCell>
        <mxCell id="SxomY5DpxiQTBFnu6cV1-29" value="" style="endArrow=classic;startArrow=classic;html=1;rounded=0;exitX=1;exitY=0.5;exitDx=0;exitDy=0;" edge="1" parent="1" target="SxomY5DpxiQTBFnu6cV1-28">
          <mxGeometry width="50" height="50" relative="1" as="geometry">
            <mxPoint x="530.0000000000002" y="120" as="sourcePoint" />
            <mxPoint x="650" y="100" as="targetPoint" />
          </mxGeometry>
        </mxCell>
        <mxCell id="SxomY5DpxiQTBFnu6cV1-30" value="" style="rounded=0;whiteSpace=wrap;html=1;" vertex="1" parent="1">
          <mxGeometry x="140" y="310" width="30" height="60" as="geometry" />
        </mxCell>
      </root>
    </mxGraphModel>
  </diagram>
</mxfile>
